<svg height="44" viewBox="0 0 21 44" width="21" xmlns="http://www.w3.org/2000/svg">
                            <path d="m2.5312 17.0586c-.082.6445-.1758 1.2539-.252 1.8105h1.4473v.5449c-.0586 1.623-.3105 3.0352-.7852 4.2246.4219.4219.7676.7969 1.0371 1.1367l-.6562.75c-.2402-.2988-.5039-.6152-.8086-.9551-.3926.7441-.8848 1.377-1.4648 1.916l-.6211-.7676c.5801-.5215 1.0605-1.1367 1.4297-1.8516-.3926-.3926-.8086-.8145-1.2832-1.2539.2285-.8613.4219-1.8047.6094-2.8066h-.7207v-.9375h.8555c.0996-.6094.1758-1.2422.2578-1.9043l.9551.0938zm.3047 2.748h-.7148c-.1816 1.002-.3809 1.8516-.5742 2.5312.2461.2285.4863.4336.7031.6387.3223-.9375.5156-1.9922.5859-3.1699zm3.082 3.0234c.0352-.2578.0586-.5215.0703-.8027v-.4102h-1.8281v-3.6855h.9375v2.8242h4.0781v2.0742h.6152v.8789h-3.0996c-.123.4512-.2871.8438-.4922 1.1836-.4277.6738-1.1133 1.1836-2.0801 1.5469l-.5215-.8203c.9141-.3516 1.5352-.8027 1.8691-1.3301.0879-.1875.1699-.375.2461-.5801h-2.0447v-.8789h2.25zm3.1641-5.5137v2.8242h-3.3105v-2.8242zm-.8848.832h-1.5586v1.166h1.5586zm1.6406 7.4883-.5273.8027c-.8203-.6973-1.6523-1.2539-2.5137-1.6523l.4922-.7148c.9434.4277 1.793.9492 2.5488 1.5645zm-1.5879-4.0195h-1.3242v.4102c-.0117.293-.0293.5566-.0586.8027h1.3828zm6.0176 2.9648c-.8027.7031-1.7871 1.3184-2.9648 1.8574l-.5859-.7734c1.1719-.4688 2.1445-1.0137 2.9238-1.623l.627.5391zm.4805-6.5801c.1348-.3164.2344-.6445.3223-.9727l.8965.1113c-.082.3105-.1816.5918-.3164.8613h1.2012v4.1602h-.9785v.7266h4.1719v.9023h-4.1719v2.6777h-.9609v-2.6777h-4.1836v-.9023h4.1836v-.7266h-.9785l.0703.2695-.6855.1816c-.0586-.2461-.1055-.4688-.1699-.6914-.5918.1348-1.2891.293-2.0918.4395l-.1641-.6094c.4512-.4688.8613-1.0547 1.2305-1.7285-.3867.0703-.8086.1406-1.2422.2051l-.1523-.7031c.2227-.0996.6328-.8906 1.2188-2.3379l.7734.2695c-.3691.8438-.6914 1.4766-.9375 1.8867.2637-.0527.5156-.0996.7441-.1406.1582-.3691.3047-.7383.4512-1.125l.7441.2109c-.2871.7793-.5977 1.459-.9199 2.0508l.5508-.1758c.2051.5625.3984 1.2012.5625 1.9043v-4.0664h.832zm-2.6543 3.4102c.2871-.0586.5742-.1113.8613-.1699-.082-.2695-.1641-.5156-.2461-.7383-.2051.3281-.4102.6328-.6152.9082zm3.8848-1.7227v-.9258h-1.1895v.9258zm0 .7734h-1.1895v.9434h1.1895zm.5625 4.1367.5918-.5566c.8203.3633 1.7988.9316 2.9355 1.6875l-.6855.6855c-.8613-.6562-1.8105-1.2598-2.8418-1.8164zm3.5156-2.2207-.6738.1758c-.0527-.2227-.1055-.4277-.1465-.6328-.5625.1465-1.2422.3047-2.0273.457l-.1641-.6152c.4277-.4688.8203-1.0547 1.166-1.752-.3457.0586-.709.1113-1.084.1758l-.1582-.7031c.1875-.0996.5273-.8672 1.0078-2.2969l.7676.2695c-.3281.8438-.5918 1.4707-.7969 1.8691.2227-.0469.4277-.082.6328-.123.1465-.3516.2871-.7148.4219-1.0957l.7324.2227c-.2402.7266-.5098 1.3711-.7852 1.9277l.4512-.1465c.2461.6562.4746 1.4062.6562 2.2676zm-1.8164-.9551c.2695-.0527.5449-.0996.8086-.1582-.0762-.2695-.1465-.5156-.2344-.7617-.1816.3516-.3809.6562-.5742.9199z"></path></svg>