<svg enable-background="new 0 0 49 44" height="44" width="49" viewBox="0 0 49 44" xmlns="http://www.w3.org/2000/svg">
                            <path d="m3.3 26v-7.7h-2.8v-.8h6.5v.8h-2.8v7.7zm7.6 0-3.2-8.5h.9l2.6 7.3h.1l2.6-7.3h1.1l-3.2 8.5zm9.3-6.3v-1.2c-.5.1-.9.1-1.4.2l-.3-.9c1.6-.1 2.9-.4 3.8-.8l.5.8c-.5.2-1.1.3-1.6.5v1.4h1.7v.9h-1.7v.4c.6.5 1.2 1.1 1.8 1.7l-.6.8c-.5-.7-.8-1.2-1.2-1.6v4.4h-.9v-4.1c-.4.9-.9 1.7-1.6 2.4l-.4-1.1c.9-.8 1.6-1.8 2-2.8h-1.7v-.9zm7 6.3h-.9v-.8h-2.2v.9h-.9v-8.5h4.1v8.4zm-.9-1.6v-5.8h-2.2v5.8zm9.9-4.9v.9h-2.3c-.3.2-.5.3-.7.5.4.4.6.8.8 1.3.8-.3 1.6-.8 2.3-1.5l.7.7c-.7.6-1.5 1.1-2.3 1.5.8.9 1.8 1.6 3.1 2.2l-.5.9c-1.2-.6-2.1-1.4-2.9-2.3v.6c0 .8-.1 1.4-.3 1.7-.3.4-.9.5-1.8.5h-.3l-.3-.8h.5c.6 0 .9-.1 1.1-.2.2-.2.3-.6.3-1.2 0-.1 0-.2 0-.3-1.1.8-2.6 1.5-4.4 2.1l-.5-.8c2-.6 3.6-1.3 4.7-2.2-.1-.2-.1-.4-.2-.6-1 .7-2.2 1.3-3.8 1.8l-.5-.8c1.7-.4 3-1 3.9-1.6-.1-.1-.2-.3-.3-.4 0 0-.1 0-.1.1-.7.3-1.6.7-2.8 1l-.5-.8c.9-.2 1.8-.5 2.6-.8.2-.1.5-.2.7-.3h-2.3v-.9zm-2.5-1.7h3.8v1.9h-1v-1h-6.8v1h-1v-1.9h4c-.1-.3-.2-.5-.3-.7l1-.2c.1.3.2.6.3.9zm10.6 0h3.7v.9h-7.6v2.5c0 2.2-.4 3.9-1 5.2l-.7-.6c.5-1.1.7-2.6.7-4.5v-3.4h3.9c-.1-.3-.3-.5-.4-.7l1-.2c.1.2.2.5.4.8zm-1.1 1.4v.8c-.4.6-.8 1.2-1.2 1.6h1.2v.5c0 1-.3 1.8-.6 2.5.2.2.4.3.6.4.7.3 1.7.4 3.2.4h1.8l-.2.9h-1.1c-1.9 0-3.3-.2-4.1-.6-.2-.1-.4-.2-.6-.4-.4.4-.8.8-1.4 1l-.5-.8c.5-.2.9-.5 1.2-.9-.3-.4-.6-.9-.8-1.5l.8-.3c.2.4.4.8.6 1.1.2-.5.4-1 .4-1.5h-1.5v-.7c.5-.5.9-1 1.3-1.6h-1.4v-.9zm2 2.2v-1.2c-.4 0-.9.1-1.4.1l-.3-.8c1.4 0 2.6-.2 3.6-.5l.5.8c-.4.2-.9.3-1.5.4v1.3h1.4v.9h-1.4v1.4h1.7v.9h-4.3v-.9h1.7v-1.4h-1.4v-.9z"></path></svg>